<?xml version="1.0" ?><!DOCTYPE svg  PUBLIC '-//W3C//DTD SVG 1.1//EN'  'http://www.w3.org/Graphics/SVG/1.1/DTD/svg11.dtd'><svg enable-background="new 0 0 60 60" height="60px" id="图层_1" version="1.1" viewBox="0 0 60 60" width="60px" xml:space="preserve" xmlns="http://www.w3.org/2000/svg" xmlns:xlink="http://www.w3.org/1999/xlink"><g><path d="M41.163,30.502H19.548c-4.432,0-8.038-3.604-8.038-8.035c0-3.833,2.663-7.089,6.38-7.864   c1.395-5.682,6.583-9.771,12.465-9.771c5.883,0,11.071,4.089,12.466,9.771c3.717,0.775,6.38,4.031,6.38,7.864   C49.201,26.898,45.595,30.502,41.163,30.502z M30.355,5.833c-5.527,0-10.389,3.914-11.563,9.308   c-0.044,0.2-0.205,0.354-0.407,0.387c-3.404,0.566-5.875,3.485-5.875,6.94c0,3.879,3.157,7.035,7.038,7.035h21.614   c3.881,0,7.038-3.156,7.038-7.035c0-3.455-2.471-6.374-5.876-6.94c-0.202-0.033-0.362-0.187-0.406-0.387   C40.746,9.747,35.882,5.833,30.355,5.833z" fill="#FFA62D"/><path d="M30.355,56.467L30.355,56.467c-0.196,0-0.375-0.114-0.456-0.292L18.019,30.21   c-0.115-0.251-0.004-0.548,0.247-0.663c0.252-0.113,0.547-0.004,0.663,0.247l11.427,24.972l11.428-24.972   c0.114-0.251,0.41-0.359,0.663-0.247c0.251,0.115,0.361,0.412,0.246,0.663L30.81,56.175C30.728,56.353,30.551,56.467,30.355,56.467   z" fill="#FFA62D"/></g></svg>